<svg width="800" height="221" viewBox="0 0 800 221" fill="none" xmlns="http://www.w3.org/2000/svg">
<circle cx="52.4934" cy="129.134" r="52.4934" fill="#878A8D" fill-opacity="0.5"/>
<rect x="129.134" y="76.6406" width="183.727" height="104.987" rx="52.4934" fill="#878A8D" fill-opacity="0.5"/>
<path d="M391.647 193.051C380.905 193.051 372.897 190.707 367.624 186.02C362.416 181.332 359.812 173.65 359.812 162.973V106.234H345.163V87.4844H359.812V61.2148H384.519V87.4844H403.757V106.234H384.519V161.02C384.519 166.033 385.625 169.516 387.839 171.469C390.118 173.357 393.438 174.301 397.8 174.301C399.037 174.301 400.111 174.268 401.022 174.203C401.999 174.073 402.91 173.975 403.757 173.91V192.172C402.325 192.367 400.567 192.562 398.483 192.758C396.465 192.953 394.187 193.051 391.647 193.051ZM421.14 191V50.082H445.456V104.867H445.944C448.679 98.6172 452.748 93.7995 458.151 90.4141C463.62 87.0286 470.196 85.3359 477.878 85.3359C485.365 85.3359 491.843 87.0612 497.312 90.5117C502.78 93.8971 507.012 98.6823 510.007 104.867C513.002 110.987 514.499 118.214 514.499 126.547V191H490.183V131.332C490.183 123.389 488.262 117.172 484.421 112.68C480.58 108.122 475.176 105.844 468.21 105.844C463.653 105.844 459.649 106.951 456.198 109.164C452.813 111.312 450.176 114.307 448.288 118.148C446.4 121.924 445.456 126.319 445.456 131.332V191H421.14ZM579.636 193.051C569.284 193.051 560.365 190.87 552.878 186.508C545.456 182.146 539.759 175.961 535.788 167.953C531.817 159.945 529.831 150.473 529.831 139.535V139.438C529.831 128.565 531.817 119.092 535.788 111.02C539.825 102.882 545.456 96.5664 552.683 92.0742C559.974 87.582 568.568 85.3359 578.464 85.3359C588.295 85.3359 596.791 87.5169 603.952 91.8789C611.179 96.1758 616.713 102.23 620.554 110.043C624.46 117.855 626.413 126.97 626.413 137.387V145.199H541.843V128.988H614.792L603.073 144.125V134.75C603.073 127.979 602.032 122.348 599.948 117.855C597.865 113.363 595 110.01 591.354 107.797C587.709 105.518 583.509 104.379 578.757 104.379C573.939 104.379 569.642 105.551 565.866 107.895C562.155 110.173 559.226 113.591 557.077 118.148C554.994 122.706 553.952 128.24 553.952 134.75V144.125C553.952 150.44 554.994 155.844 557.077 160.336C559.226 164.763 562.253 168.181 566.159 170.59C570.065 172.934 574.72 174.105 580.124 174.105C584.16 174.105 587.709 173.487 590.769 172.25C593.828 170.948 596.335 169.288 598.288 167.27C600.306 165.251 601.706 163.07 602.487 160.727L602.683 160.043H625.339L625.144 161.117C624.297 165.089 622.735 168.995 620.456 172.836C618.177 176.612 615.118 180.03 611.276 183.09C607.435 186.15 602.878 188.591 597.604 190.414C592.331 192.172 586.341 193.051 579.636 193.051ZM687.741 193.051C677.585 193.051 668.763 190.902 661.276 186.605C653.789 182.243 647.963 176.059 643.796 168.051C639.694 159.978 637.644 150.375 637.644 139.242V139.047C637.644 127.979 639.727 118.441 643.894 110.434C648.06 102.361 653.887 96.1758 661.374 91.8789C668.861 87.5169 677.618 85.3359 687.644 85.3359C697.735 85.3359 706.524 87.5169 714.011 91.8789C721.563 96.1758 727.422 102.328 731.589 110.336C735.756 118.344 737.839 127.914 737.839 139.047V139.242C737.839 150.44 735.756 160.076 731.589 168.148C727.487 176.156 721.693 182.309 714.206 186.605C706.719 190.902 697.897 193.051 687.741 193.051ZM687.839 173.422C692.982 173.422 697.442 172.087 701.218 169.418C704.994 166.749 707.891 162.875 709.909 157.797C711.993 152.654 713.034 146.469 713.034 139.242V139.047C713.034 131.885 711.993 125.766 709.909 120.688C707.826 115.609 704.864 111.736 701.022 109.066C697.246 106.397 692.787 105.062 687.644 105.062C682.631 105.062 678.203 106.397 674.362 109.066C670.586 111.736 667.624 115.609 665.476 120.688C663.392 125.766 662.351 131.885 662.351 139.047V139.242C662.351 146.469 663.392 152.654 665.476 157.797C667.624 162.875 670.586 166.749 674.362 169.418C678.203 172.087 682.696 173.422 687.839 173.422Z" fill="#878A8D" fill-opacity="0.5"/>
</svg>
